<svg width="35" height="35" viewBox="0 0 35 35" fill="none" xmlns="http://www.w3.org/2000/svg">
<path d="M17.5 0C27.1653 0 35 7.83436 35 17.4991C35 27.1639 27.1653 34.9982 17.5 34.9982C14.707 35.0021 11.9539 34.3347 9.47276 33.0523L2.77726 34.9195C2.40371 35.0237 2.00916 35.0268 1.63403 34.9284C1.2589 34.8299 0.916691 34.6335 0.642456 34.3593C0.368221 34.0851 0.171824 33.7429 0.0733871 33.3678C-0.0250493 32.9927 -0.0219855 32.5982 0.0822646 32.2246L1.95126 25.5347C0.66563 23.0515 -0.0036204 20.2954 1.47296e-05 17.4991C1.47296e-05 7.83436 7.83476 0 17.5 0ZM17.5 2.62487C13.5549 2.62487 9.7714 4.19197 6.9818 6.98144C4.1922 9.7709 2.62501 13.5542 2.62501 17.4991C2.62501 20.0715 3.27776 22.5441 4.50276 24.7385L4.76526 25.211L2.81926 32.1826L9.79651 30.2367L10.269 30.4992C12.2542 31.6029 14.4657 32.2373 16.7341 32.3538C19.0025 32.4703 21.2674 32.0658 23.3552 31.1713C25.443 30.2769 27.2983 28.9162 28.7787 27.1936C30.259 25.4711 31.3253 23.4324 31.8956 21.2339C32.4659 19.0354 32.5252 16.7355 32.0688 14.5106C31.6125 12.2857 30.6526 10.1948 29.2629 8.39829C27.8731 6.6018 26.0904 5.1474 24.0514 4.14663C22.0125 3.14586 19.7714 2.6253 17.5 2.62487ZM17.5 23.6238C17.9641 23.6238 18.4093 23.8082 18.7374 24.1363C19.0656 24.4645 19.25 24.9096 19.25 25.3737C19.25 25.8378 19.0656 26.2829 18.7374 26.6111C18.4093 26.9393 17.9641 27.1236 17.5 27.1236C17.0359 27.1236 16.5908 26.9393 16.2626 26.6111C15.9344 26.2829 15.75 25.8378 15.75 25.3737C15.75 24.9096 15.9344 24.4645 16.2626 24.1363C16.5908 23.8082 17.0359 23.6238 17.5 23.6238ZM17.5 8.31208C18.7764 8.31208 20.0004 8.81909 20.903 9.72156C21.8055 10.624 22.3125 11.848 22.3125 13.1243C22.3125 14.8918 21.7928 15.8787 20.4733 17.2524L20.1775 17.5516C19.089 18.6401 18.8125 19.102 18.8125 20.124C18.8125 20.4721 18.6742 20.8059 18.4281 21.052C18.1819 21.2981 17.8481 21.4364 17.5 21.4364C17.1519 21.4364 16.8181 21.2981 16.5719 21.052C16.3258 20.8059 16.1875 20.4721 16.1875 20.124C16.1875 18.3566 16.7073 17.3696 18.0268 15.9959L18.3225 15.6967C19.411 14.6083 19.6875 14.1463 19.6875 13.1243C19.6857 12.5648 19.4696 12.0273 19.0835 11.6223C18.6975 11.2173 18.171 10.9756 17.6122 10.9469C17.0534 10.9182 16.5049 11.1047 16.0794 11.4681C15.6539 11.8314 15.3839 12.344 15.3248 12.9004L15.3125 13.1243C15.3125 13.4724 15.1742 13.8062 14.9281 14.0524C14.6819 14.2985 14.3481 14.4368 14 14.4368C13.6519 14.4368 13.3181 14.2985 13.0719 14.0524C12.8258 13.8062 12.6875 13.4724 12.6875 13.1243C12.6875 11.848 13.1945 10.624 14.0971 9.72156C14.9996 8.81909 16.2237 8.31208 17.5 8.31208Z" fill="#CFF39A"/>
</svg>
