<svg width="55" height="55" viewBox="0 0 55 55" fill="none" xmlns="http://www.w3.org/2000/svg">
<path d="M31 27.5004L24.5208 39.8958C24.1007 40.316 23.8906 40.8507 23.8906 41.5C23.8906 42.1493 24.1007 42.684 24.5208 43.1042C24.941 43.5243 25.4757 43.7344 26.125 43.7344C26.7743 43.7344 27.309 43.5243 27.7292 43.1042L35.0625 29.1045C35.5208 28.6462 35.75 28.1115 35.75 27.5004C35.75 26.8892 35.5208 26.3545 35.0625 25.8962L27.7292 12.2917C27.309 11.8715 26.7743 11.6615 26.125 11.6615C25.4757 11.6615 24.941 11.8715 24.5208 12.2917C24.1007 12.7118 23.8906 13.2465 23.8906 13.8958C23.8906 14.5451 24.1007 15.0799 24.5208 15.5L31 27.5004Z" fill="white"/>
</svg>
