<svg width="55" height="40" viewBox="0 0 55 40" fill="none" xmlns="http://www.w3.org/2000/svg">
<path d="M0.688088 30.2107C0.36137 30.4405 0.131047 30.783 0.0413641 31.1723C-0.048319 31.5616 0.00896195 31.9704 0.202204 32.32L4.16262 39.18C4.56905 39.8831 5.50109 40.1735 6.23145 39.8158L18.3266 33.9555L23.5 31.5L24.4384 30.9902L36.8788 24.9588L28.8724 11.0799L0.688088 30.2107ZM53.3378 6.20095C51.6915 3.35136 48.9812 1.27259 45.8029 0.421837C42.6247 -0.428914 39.2388 0.0180206 36.3899 1.66435C33.6091 3.26928 31.7816 5.81882 30.8863 8.66184L39.9806 24.4238C42.8867 25.0719 46.0098 24.7601 48.7968 23.1551C51.6463 21.5092 53.7256 18.7984 54.5772 15.6188C55.4288 12.4393 54.983 9.05162 53.3378 6.20095Z" fill="#CFF39A"/>
</svg>
