<svg width="47" height="51" viewBox="0 0 47 51" fill="none" xmlns="http://www.w3.org/2000/svg">
<g filter="url(#filter0_d_327_207)">
<path d="M23.375 29.75C26.9259 29.75 29.75 26.9216 29.75 23.375C29.75 19.8284 26.9259 17 23.375 17C19.8241 17 17 19.8284 17 23.375C17 26.9216 19.8241 29.75 23.375 29.75Z" fill="#CFF39A"/>
</g>
<g filter="url(#filter1_d_327_207)">
<path d="M41.8611 19.5203C41.3625 17.0723 40.3839 14.7475 38.9818 12.6799C37.6081 10.6429 35.8549 8.88973 33.818 7.51613C31.7478 6.11888 29.4239 5.14067 26.9776 4.63675C25.6923 4.37566 24.3835 4.24748 23.0719 4.25425V0L14.625 6.375L23.0719 12.75V8.50425C24.1004 8.5 25.1289 8.59775 26.1213 8.80175C28.0225 9.19355 29.8287 9.95372 31.438 11.0394C33.0242 12.1086 34.3893 13.4737 35.4585 15.0599C37.1185 17.5149 38.0038 20.4114 38 23.375C38.0015 25.3639 37.604 27.333 36.8313 29.1656C36.4576 30.0493 35.9993 30.8947 35.4627 31.6901C34.9274 32.483 34.3168 33.2224 33.6395 33.898C31.5823 35.9509 28.971 37.3592 26.1255 37.9504C24.1467 38.3516 22.1075 38.3516 20.1287 37.9504C18.2266 37.5582 16.4196 36.7973 14.8099 35.7106C13.2256 34.6423 11.862 33.2787 10.7936 31.6944C9.13565 29.2367 8.24989 26.3396 8.25 23.375H4C3.99968 27.187 5.13852 30.9121 7.27038 34.0723C8.64721 36.1039 10.3982 37.8549 12.4299 39.2318C15.5868 41.3684 19.313 42.507 23.125 42.5C24.4198 42.5012 25.7113 42.3709 26.9797 42.1111C29.4253 41.6069 31.7484 40.6287 33.818 39.2318C34.8334 38.5457 35.7806 37.7637 36.6464 36.8964C37.5145 36.03 38.2973 35.0821 38.9839 34.0659C41.1189 30.9099 42.2568 27.1853 42.25 23.375C42.2512 22.0802 42.1209 20.7887 41.8611 19.5203Z" fill="#CFF39A"/>
</g>
<defs>
<filter id="filter0_d_327_207" x="13" y="17" width="20.75" height="20.75" filterUnits="userSpaceOnUse" color-interpolation-filters="sRGB">
<feFlood flood-opacity="0" result="BackgroundImageFix"/>
<feColorMatrix in="SourceAlpha" type="matrix" values="0 0 0 0 0 0 0 0 0 0 0 0 0 0 0 0 0 0 127 0" result="hardAlpha"/>
<feOffset dy="4"/>
<feGaussianBlur stdDeviation="2"/>
<feComposite in2="hardAlpha" operator="out"/>
<feColorMatrix type="matrix" values="0 0 0 0 0 0 0 0 0 0 0 0 0 0 0 0 0 0 0.25 0"/>
<feBlend mode="normal" in2="BackgroundImageFix" result="effect1_dropShadow_327_207"/>
<feBlend mode="normal" in="SourceGraphic" in2="effect1_dropShadow_327_207" result="shape"/>
</filter>
<filter id="filter1_d_327_207" x="0" y="0" width="46.25" height="50.5" filterUnits="userSpaceOnUse" color-interpolation-filters="sRGB">
<feFlood flood-opacity="0" result="BackgroundImageFix"/>
<feColorMatrix in="SourceAlpha" type="matrix" values="0 0 0 0 0 0 0 0 0 0 0 0 0 0 0 0 0 0 127 0" result="hardAlpha"/>
<feOffset dy="4"/>
<feGaussianBlur stdDeviation="2"/>
<feComposite in2="hardAlpha" operator="out"/>
<feColorMatrix type="matrix" values="0 0 0 0 0 0 0 0 0 0 0 0 0 0 0 0 0 0 0.25 0"/>
<feBlend mode="normal" in2="BackgroundImageFix" result="effect1_dropShadow_327_207"/>
<feBlend mode="normal" in="SourceGraphic" in2="effect1_dropShadow_327_207" result="shape"/>
</filter>
</defs>
</svg>
