<svg width="28" height="28" viewBox="0 0 28 28" fill="none" xmlns="http://www.w3.org/2000/svg">
<path d="M14.0002 2.33203C20.4437 2.33203 25.6668 7.5552 25.6668 13.9987C25.6668 20.4422 20.4437 25.6654 14.0002 25.6654C7.55666 25.6654 2.3335 20.4422 2.3335 13.9987C2.3335 7.5552 7.55666 2.33203 14.0002 2.33203ZM14.0002 4.66536C11.5248 4.66536 9.15084 5.6487 7.4005 7.39903C5.65016 9.14937 4.66683 11.5233 4.66683 13.9987C4.66683 16.4741 5.65016 18.848 7.4005 20.5984C9.15084 22.3487 11.5248 23.332 14.0002 23.332C16.4755 23.332 18.8495 22.3487 20.5998 20.5984C22.3502 18.848 23.3335 16.4741 23.3335 13.9987C23.3335 11.5233 22.3502 9.14937 20.5998 7.39903C18.8495 5.6487 16.4755 4.66536 14.0002 4.66536ZM14.0002 6.9987C14.2859 6.99874 14.5617 7.10365 14.7753 7.29353C14.9888 7.48342 15.1252 7.74507 15.1587 8.02886L15.1668 8.16537V13.5157L18.325 16.6739C18.5342 16.8838 18.6557 17.1655 18.6648 17.4618C18.6738 17.7581 18.5697 18.0467 18.3737 18.269C18.1777 18.4914 17.9044 18.6307 17.6093 18.6588C17.3142 18.6869 17.0195 18.6017 16.785 18.4204L16.6753 18.3235L13.1753 14.8235C12.994 14.6421 12.8776 14.4059 12.844 14.1515L12.8335 13.9987V8.16537C12.8335 7.85595 12.9564 7.5592 13.1752 7.34041C13.394 7.12161 13.6907 6.9987 14.0002 6.9987Z" fill="white"/>
</svg>
