<svg width="33" height="13" viewBox="0 0 33 13" fill="none" xmlns="http://www.w3.org/2000/svg">
<path d="M16.4999 8L28.8953 1.52083C29.3155 1.10069 29.8502 0.890624 30.4995 0.890624C31.1488 0.890624 31.6835 1.10069 32.1037 1.52083C32.5238 1.94097 32.7339 2.47569 32.7339 3.125C32.7339 3.7743 32.5238 4.30903 32.1037 4.72917L18.104 12.0625C17.6457 12.5208 17.111 12.75 16.4999 12.75C15.8888 12.75 15.354 12.5208 14.8957 12.0625L1.29119 4.72917C0.871054 4.30903 0.660978 3.7743 0.660978 3.125C0.660978 2.47569 0.871054 1.94097 1.29119 1.52083C1.71133 1.10069 2.24605 0.890624 2.89536 0.890624C3.54466 0.890624 4.07939 1.10069 4.49952 1.52083L16.4999 8Z" fill="white"/>
</svg>
